<svg width="321" height="72" viewBox="0 0 321 72" fill="none" xmlns="http://www.w3.org/2000/svg">
<g clip-path="url(#clip0_1_718)">
<mask id="mask0_1_718" style="mask-type:luminance" maskUnits="userSpaceOnUse" x="55" y="44" width="2" height="5">
<path d="M55.5444 46.8118L56.2276 44.8217V48.8019L55.5444 46.8118Z" fill="white"/>
</mask>
<g mask="url(#mask0_1_718)">
<path d="M57.1782 10.0989H0V69.1484H57.1782V10.0989Z" fill="url(#paint0_linear_1_718)"/>
</g>
<mask id="mask1_1_718" style="mask-type:luminance" maskUnits="userSpaceOnUse" x="49" y="54" width="8" height="15">
<path d="M52.6039 54.7722L56.2277 60.2376V68.4356L49.9307 62.0197L49.9604 61.9306L52.6039 54.7722Z" fill="white"/>
</mask>
<g mask="url(#mask1_1_718)">
<path d="M57.1782 10.099H0V69.1485H57.1782V10.099Z" fill="url(#paint1_linear_1_718)"/>
</g>
<mask id="mask2_1_718" style="mask-type:luminance" maskUnits="userSpaceOnUse" x="23" y="31" width="19" height="14">
<path d="M41.9702 38.9999L32.7326 44.0197L23.8811 34.7821L36.7128 31.1583L41.9702 38.9999Z" fill="white"/>
</mask>
<g mask="url(#mask2_1_718)">
<path d="M57.1782 10.0989H0V69.1484H57.1782V10.0989Z" fill="url(#paint2_linear_1_718)"/>
</g>
<mask id="mask3_1_718" style="mask-type:luminance" maskUnits="userSpaceOnUse" x="53" y="48" width="4" height="11">
<path d="M55.0692 48.2079L56.2276 51.7128V58.6039L53.0791 53.8218L55.0692 48.2079Z" fill="white"/>
</mask>
<g mask="url(#mask3_1_718)">
<path d="M57.1782 10.099H0V69.1485H57.1782V10.099Z" fill="url(#paint3_linear_1_718)"/>
</g>
<mask id="mask4_1_718" style="mask-type:luminance" maskUnits="userSpaceOnUse" x="53" y="38" width="4" height="8">
<path d="M53.6731 41.198L56.2276 38.2871V42.1485L55.0691 45.4158L53.6731 41.198Z" fill="white"/>
</mask>
<g mask="url(#mask4_1_718)">
<path d="M57.178 10.099H-0.000244141V69.1485H57.178V10.099Z" fill="url(#paint4_linear_1_718)"/>
</g>
<mask id="mask5_1_718" style="mask-type:luminance" maskUnits="userSpaceOnUse" x="33" y="39" width="15" height="15">
<path d="M47.2572 46.8118L41.5542 53.1979L41.5245 53.2276L36.8612 48.3266L33.4453 44.7029L42.5641 39.8019L47.2572 46.8118Z" fill="white"/>
</mask>
<g mask="url(#mask5_1_718)">
<path d="M57.178 10.0989H-0.000244141V69.1484H57.178V10.0989Z" fill="url(#paint5_linear_1_718)"/>
</g>
<mask id="mask6_1_718" style="mask-type:luminance" maskUnits="userSpaceOnUse" x="13" y="21" width="24" height="14">
<path d="M36.1188 30.3267L23.1089 34.0395L23.0495 34.0692L18.4158 29.1683L13.1287 23.5544L30.297 21.6831L36.1188 30.3267Z" fill="white"/>
</mask>
<g mask="url(#mask6_1_718)">
<path d="M57.1782 10.0989H0V69.1484H57.1782V10.0989Z" fill="url(#paint6_linear_1_718)"/>
</g>
<mask id="mask7_1_718" style="mask-type:luminance" maskUnits="userSpaceOnUse" x="37" y="28" width="14" height="11">
<path d="M47.8217 28.0098L50.1683 34.4256L42.8019 38.5246L37.6633 30.8018L47.8217 28.0098Z" fill="white"/>
</mask>
<g mask="url(#mask7_1_718)">
<path d="M57.1782 10.0989H0V69.1484H57.1782V10.0989Z" fill="url(#paint7_linear_1_718)"/>
</g>
<mask id="mask8_1_718" style="mask-type:luminance" maskUnits="userSpaceOnUse" x="48" y="42" width="7" height="11">
<path d="M52.3958 52.7821L48.5344 46.9306L52.8414 42.1484L54.5047 46.8118L52.3958 52.7821Z" fill="white"/>
</mask>
<g mask="url(#mask8_1_718)">
<path d="M57.178 10.099H-0.000244141V69.1485H57.178V10.099Z" fill="url(#paint8_linear_1_718)"/>
</g>
<mask id="mask9_1_718" style="mask-type:luminance" maskUnits="userSpaceOnUse" x="24" y="10" width="21" height="11">
<path d="M30.6534 20.6435L24.2375 10.9307H41.7326L44.5544 19.0099L30.6534 20.6435Z" fill="white"/>
</mask>
<g mask="url(#mask9_1_718)">
<path d="M57.1782 10.0989H0V69.1484H57.1782V10.0989Z" fill="url(#paint9_linear_1_718)"/>
</g>
<mask id="mask10_1_718" style="mask-type:luminance" maskUnits="userSpaceOnUse" x="0" y="10" width="30" height="13">
<path d="M29.7029 20.7623L12.2079 22.7524H12.1782L0.861328 10.9307H23.0494L29.7029 20.7623Z" fill="white"/>
</mask>
<g mask="url(#mask10_1_718)">
<path d="M57.1782 10.0989H0V69.1484H57.1782V10.0989Z" fill="url(#paint10_linear_1_718)"/>
</g>
<mask id="mask11_1_718" style="mask-type:luminance" maskUnits="userSpaceOnUse" x="31" y="19" width="17" height="12">
<path d="M45.0297 19.9308L47.4654 27.0595L37.0693 30.0001L31.3367 21.4456L45.0297 19.9308Z" fill="white"/>
</mask>
<g mask="url(#mask11_1_718)">
<path d="M57.1782 10.099H0V69.1485H57.1782V10.099Z" fill="url(#paint11_linear_1_718)"/>
</g>
<mask id="mask12_1_718" style="mask-type:luminance" maskUnits="userSpaceOnUse" x="43" y="35" width="10" height="12">
<path d="M50.4058 35.3463L52.5147 41.079L47.9405 46.0988L43.2771 39.3265L50.4058 35.3463Z" fill="white"/>
</mask>
<g mask="url(#mask12_1_718)">
<path d="M57.1782 10.0989H0V69.1484H57.1782V10.0989Z" fill="url(#paint12_linear_1_718)"/>
</g>
<mask id="mask13_1_718" style="mask-type:luminance" maskUnits="userSpaceOnUse" x="45" y="18" width="12" height="9">
<path d="M45.9504 19.8416L56.2277 18.6534V24.6237L48.5346 26.8515L45.9504 19.8416Z" fill="white"/>
</mask>
<g mask="url(#mask13_1_718)">
<path d="M57.1782 10.099H0V69.1485H57.1782V10.099Z" fill="url(#paint13_linear_1_718)"/>
</g>
<mask id="mask14_1_718" style="mask-type:luminance" maskUnits="userSpaceOnUse" x="42" y="10" width="15" height="9">
<path d="M56.2277 10.9307V17.7326L45.6238 18.8911L42.7129 10.9307H56.2277Z" fill="white"/>
</mask>
<g mask="url(#mask14_1_718)">
<path d="M57.1782 10.0989H0V69.1484H57.1782V10.0989Z" fill="url(#paint14_linear_1_718)"/>
</g>
<mask id="mask15_1_718" style="mask-type:luminance" maskUnits="userSpaceOnUse" x="42" y="47" width="11" height="15">
<path d="M52.0394 53.8217L49.2474 61.1583L49.2177 61.188L47.0196 58.8415L42.2078 53.8217L47.8216 47.6434L52.0394 53.8217Z" fill="white"/>
</mask>
<g mask="url(#mask15_1_718)">
<path d="M57.178 10.099H-0.000244141V69.1485H57.178V10.099Z" fill="url(#paint15_linear_1_718)"/>
</g>
<mask id="mask16_1_718" style="mask-type:luminance" maskUnits="userSpaceOnUse" x="51" y="32" width="6" height="9">
<path d="M51.3267 34.9008L56.2276 32.1979V36.8909L53.1979 40.2771L51.3267 34.9008Z" fill="white"/>
</mask>
<g mask="url(#mask16_1_718)">
<path d="M57.178 10.099H-0.000244141V69.1485H57.178V10.099Z" fill="url(#paint16_linear_1_718)"/>
</g>
<mask id="mask17_1_718" style="mask-type:luminance" maskUnits="userSpaceOnUse" x="48" y="25" width="9" height="10">
<path d="M48.7722 27.6535L56.2277 25.5446V31.0396L50.9702 34.0693L48.7722 27.6535Z" fill="white"/>
</mask>
<g mask="url(#mask17_1_718)">
<path d="M57.1782 10.099H0V69.1485H57.1782V10.099Z" fill="url(#paint17_linear_1_718)"/>
</g>
<mask id="mask18_1_718" style="mask-type:luminance" maskUnits="userSpaceOnUse" x="57" y="0" width="64" height="40">
<path d="M57.2971 37.2178V39.4456L58.6932 35.703L57.2971 37.2178ZM57.2971 31.604V35.8218L59.6437 33.2376L60.9209 29.4951L57.2971 31.604ZM62.1981 28.8119L61.3664 31.2773L64.8714 27.2971L62.1981 28.8119ZM57.2971 25.307V30.5644L61.3961 28.2178L63.1486 23.6733L57.2971 25.307ZM64.307 23.4357L62.6734 27.5347L66.8912 25.1881L70.0397 21.802L64.307 23.4357ZM71.7922 21.2079L69.5644 23.6733L70.3961 23.198L74.1387 20.4951L71.7922 21.2079ZM57.2971 18.5347V24.2674L63.5941 22.5149L65.3466 17.7327L57.2971 18.5644V18.5347ZM66.4159 17.4951L64.6635 22.2773L71.3169 20.2872L74.7031 16.5446L66.4159 17.4654V17.4951ZM76.1288 16.4555L73.0991 19.9604L76.8417 18.802L82.0991 15.7723L76.1288 16.4852V16.4555ZM57.3268 10.9604V17.6139L65.7328 16.5743L67.8417 10.9604H57.3268ZM68.8813 10.9604L66.7724 16.5743L75.6535 15.5347L79.7526 10.9901H68.8813V10.9604ZM81.0298 10.9604L77.1684 15.3862L84.5347 14.4654L91.7823 10.9604H81.0298ZM57.2971 0.980225V9.98022H68.1684L71.4357 0.980225H57.2971ZM72.4753 0.980225L69.0892 9.98022H80.6734L88.7229 0.980225H72.4753ZM90.0001 0.980225L81.8318 9.98022H94.0991C97.4852 8.58418 101.109 7.18815 104.852 5.88121C109.753 4.24755 114.654 2.61389 120.149 0.980225H90.0001Z" fill="white"/>
</mask>
<g mask="url(#mask18_1_718)">
<path d="M120.297 0.980225H119.614V39.3862H120.297V0.980225Z" fill="#173D70"/>
<path d="M119.644 0.980225H118.96V39.3862H119.644V0.980225Z" fill="#173D73"/>
<path d="M118.99 0.980225H118.307V39.3862H118.99V0.980225Z" fill="#174073"/>
<path d="M118.307 0.980225H117.624V39.3862H118.307V0.980225Z" fill="#174073"/>
<path d="M117.654 0.980225H116.97V39.3862H117.654V0.980225Z" fill="#174073"/>
<path d="M117 0.980225H116.317V39.3862H117V0.980225Z" fill="#174073"/>
<path d="M116.347 0.980225H115.664V39.3862H116.347V0.980225Z" fill="#144278"/>
<path d="M115.693 0.980225H115.01V39.3862H115.693V0.980225Z" fill="#144278"/>
<path d="M115.04 0.980225H114.357V39.3862H115.04V0.980225Z" fill="#134577"/>
<path d="M114.387 0.980225H113.703V39.3862H114.387V0.980225Z" fill="#134579"/>
<path d="M113.733 0.980225H113.05V39.3862H113.733V0.980225Z" fill="#134579"/>
<path d="M113.05 0.980225H112.366V39.3862H113.05V0.980225Z" fill="#14477C"/>
<path d="M112.396 0.980225H111.713V39.3862H112.396V0.980225Z" fill="#14477C"/>
<path d="M111.743 0.980225H111.06V39.3862H111.743V0.980225Z" fill="#11477D"/>
<path d="M111.089 0.980225H110.406V39.3862H111.089V0.980225Z" fill="#124A7F"/>
<path d="M110.436 0.980225H109.753V39.3862H110.436V0.980225Z" fill="#124A7F"/>
<path d="M109.782 0.980225H109.099V39.3862H109.782V0.980225Z" fill="#124A81"/>
<path d="M109.129 0.980225H108.446V39.3862H109.129V0.980225Z" fill="#114D81"/>
<path d="M108.475 0.980225H107.792V39.3862H108.475V0.980225Z" fill="#114D81"/>
<path d="M107.792 0.980225H107.109V39.3862H107.792V0.980225Z" fill="#124F84"/>
<path d="M107.139 0.980225H106.456V39.3862H107.139V0.980225Z" fill="#124F84"/>
<path d="M106.485 0.980225H105.802V39.3862H106.485V0.980225Z" fill="#124F86"/>
<path d="M105.832 0.980225H105.149V39.3862H105.832V0.980225Z" fill="#124F86"/>
<path d="M105.178 0.980225H104.495V39.3862H105.178V0.980225Z" fill="#125286"/>
<path d="M104.525 0.980225H103.842V39.3862H104.525V0.980225Z" fill="#115289"/>
<path d="M103.871 0.980225H103.188V39.3862H103.871V0.980225Z" fill="#125489"/>
<path d="M103.218 0.980225H102.535V39.3862H103.218V0.980225Z" fill="#10548B"/>
<path d="M102.565 0.980225H101.881V39.3862H102.565V0.980225Z" fill="#10548B"/>
<path d="M101.881 0.980225H101.198V39.3862H101.881V0.980225Z" fill="#10548B"/>
<path d="M101.228 0.980225H100.545V39.3862H101.228V0.980225Z" fill="#0E578E"/>
<path d="M100.575 0.980225H99.8914V39.3862H100.575V0.980225Z" fill="#0E578E"/>
<path d="M99.921 0.980225H99.2378V39.3862H99.921V0.980225Z" fill="#10598E"/>
<path d="M99.2676 0.980225H98.5845V39.3862H99.2676V0.980225Z" fill="#0D5990"/>
<path d="M98.6141 0.980225H97.9309V39.3862H98.6141V0.980225Z" fill="#0D5990"/>
<path d="M97.9605 0.980225H97.2773V39.3862H97.9605V0.980225Z" fill="#0B5993"/>
<path d="M97.3072 0.980225H96.624V39.3862H97.3072V0.980225Z" fill="#0E5C93"/>
<path d="M96.6238 0.980225H95.9407V39.3862H96.6238V0.980225Z" fill="#0E5C93"/>
<path d="M95.9705 0.980225H95.2874V39.3862H95.9705V0.980225Z" fill="#0E5C96"/>
<path d="M95.317 0.980225H94.6338V39.3862H95.317V0.980225Z" fill="#0E5E95"/>
<path d="M94.6636 0.980225H93.9805V39.3862H94.6636V0.980225Z" fill="#0B5E98"/>
<path d="M94.0101 0.980225H93.3269V39.3862H94.0101V0.980225Z" fill="#0A6198"/>
<path d="M93.3568 0.980225H92.6736V39.3862H93.3568V0.980225Z" fill="#0A6198"/>
<path d="M92.7032 0.980225H92.02V39.3862H92.7032V0.980225Z" fill="#0E619B"/>
<path d="M92.0496 0.980225H91.3665V39.3862H92.0496V0.980225Z" fill="#0E619B"/>
<path d="M91.3963 0.980225H90.7131V39.3862H91.3963V0.980225Z" fill="#0C639D"/>
<path d="M90.713 0.980225H90.0298V39.3862H90.713V0.980225Z" fill="#0C639D"/>
<path d="M90.0596 0.980225H89.3765V39.3862H90.0596V0.980225Z" fill="#0E669D"/>
<path d="M89.4061 0.980225H88.7229V39.3862H89.4061V0.980225Z" fill="#0866A0"/>
<path d="M88.7527 0.980225H88.0696V39.3862H88.7527V0.980225Z" fill="#0866A0"/>
<path d="M88.0992 0.980225H87.416V39.3862H88.0992V0.980225Z" fill="#0866A2"/>
<path d="M87.4459 0.980225H86.7627V39.3862H87.4459V0.980225Z" fill="#0869A2"/>
<path d="M86.7923 0.980225H86.1091V39.3862H86.7923V0.980225Z" fill="#0869A2"/>
<path d="M86.1387 0.980225H85.4556V39.3862H86.1387V0.980225Z" fill="#0A6BA5"/>
<path d="M85.4556 0.980225H84.7725V39.3862H85.4556V0.980225Z" fill="#0A6BA5"/>
<path d="M84.8023 0.980225H84.1191V39.3862H84.8023V0.980225Z" fill="#0A6BA5"/>
<path d="M84.1487 0.980225H83.4656V39.3862H84.1487V0.980225Z" fill="#0A6BA7"/>
<path d="M83.4952 0.980225H82.812V39.3862H83.4952V0.980225Z" fill="#0A6EA7"/>
<path d="M82.8419 0.980225H82.1587V39.3862H82.8419V0.980225Z" fill="#0B6EAA"/>
<path d="M82.1883 0.980225H81.5051V39.3862H82.1883V0.980225Z" fill="#0C70AA"/>
<path d="M81.5347 0.980225H80.8516V39.3862H81.5347V0.980225Z" fill="#0C70AA"/>
<path d="M80.8814 0.980225H80.1982V39.3862H80.8814V0.980225Z" fill="#0470AC"/>
<path d="M80.1983 0.980225H79.5151V39.3862H80.1983V0.980225Z" fill="#0673AC"/>
<path d="M79.5447 0.980225H78.8616V39.3862H79.5447V0.980225Z" fill="#0873AF"/>
<path d="M78.8914 0.980225H78.2083V39.3862H78.8914V0.980225Z" fill="#0873AF"/>
<path d="M78.2379 0.980225H77.5547V39.3862H78.2379V0.980225Z" fill="#0873AF"/>
<path d="M77.5843 0.980225H76.9011V39.3862H77.5843V0.980225Z" fill="#0675B1"/>
<path d="M76.931 0.980225H76.2478V39.3862H76.931V0.980225Z" fill="#0675B1"/>
<path d="M76.2774 0.980225H75.5942V39.3862H76.2774V0.980225Z" fill="#0A78B4"/>
<path d="M75.6238 0.980225H74.9407V39.3862H75.6238V0.980225Z" fill="#0178B4"/>
<path d="M74.9705 0.980225H74.2874V39.3862H74.9705V0.980225Z" fill="#0178B4"/>
<path d="M74.2874 0.980225H73.6042V39.3862H74.2874V0.980225Z" fill="#0A79B7"/>
<path d="M73.6339 0.980225H72.9507V39.3862H73.6339V0.980225Z" fill="#047AB7"/>
<path d="M72.9805 0.980225H72.2974V39.3862H72.9805V0.980225Z" fill="#087BBA"/>
<path d="M72.327 0.980225H71.6438V39.3862H72.327V0.980225Z" fill="#047DB9"/>
<path d="M71.6734 0.980225H70.9902V39.3862H71.6734V0.980225Z" fill="#047DB9"/>
<path d="M71.0201 0.980225H70.3369V39.3862H71.0201V0.980225Z" fill="#0D7DBC"/>
<path d="M70.3665 0.980225H69.6833V39.3862H70.3665V0.980225Z" fill="#0D7DBC"/>
<path d="M69.713 0.980225H69.0298V39.3862H69.713V0.980225Z" fill="#0580BE"/>
<path d="M69.0298 0.980225H68.3467V39.3862H69.0298V0.980225Z" fill="#0580BE"/>
<path d="M68.3765 0.980225H67.6934V39.3862H68.3765V0.980225Z" fill="#0781BE"/>
<path d="M67.723 0.980225H67.0398V39.3862H67.723V0.980225Z" fill="#0682C2"/>
<path d="M67.0694 0.980225H66.3862V39.3862H67.0694V0.980225Z" fill="#0682C2"/>
<path d="M66.4161 0.980225H65.7329V39.3862H66.4161V0.980225Z" fill="#0682C2"/>
<path d="M65.7625 0.980225H65.0793V39.3862H65.7625V0.980225Z" fill="#0585C4"/>
<path d="M65.1092 0.980225H64.426V39.3862H65.1092V0.980225Z" fill="#0585C4"/>
<path d="M64.4556 0.980225H63.7725V39.3862H64.4556V0.980225Z" fill="#0587C7"/>
<path d="M63.7725 0.980225H63.0894V39.3862H63.7725V0.980225Z" fill="#0587C7"/>
<path d="M63.119 0.980225H62.4358V39.3862H63.119V0.980225Z" fill="#0587C7"/>
<path d="M62.4656 0.980225H61.7825V39.3862H62.4656V0.980225Z" fill="#068AC9"/>
<path d="M61.8121 0.980225H61.1289V39.3862H61.8121V0.980225Z" fill="#068AC9"/>
<path d="M61.1585 0.980225H60.4753V39.3862H61.1585V0.980225Z" fill="#0C89CA"/>
<path d="M60.5052 0.980225H59.822V39.3862H60.5052V0.980225Z" fill="#0A8BCB"/>
<path d="M59.8516 0.980225H59.1685V39.3862H59.8516V0.980225Z" fill="#0A8BCB"/>
<path d="M59.1983 0.980225H58.5151V39.3862H59.1983V0.980225Z" fill="#148ACB"/>
<path d="M58.5447 0.980225H57.8616V39.3862H58.5447V0.980225Z" fill="#0F8ECD"/>
<path d="M57.8616 0.980225H57.1785V39.3862H57.8616V0.980225Z" fill="#108DCD"/>
<path d="M57.3864 0.980225H57.1785V39.3862H57.3864V0.980225Z" fill="#108DCD"/>
</g>
<path d="M90.0596 37.4255C89.9111 36.4156 89.6735 35.6433 89.3765 35.1681C88.9606 34.5443 88.426 34.0691 87.7725 33.8017C86.9111 33.4453 85.9309 33.2671 84.8913 33.2671C83.0794 33.2671 81.8022 33.5641 81.0596 34.1285C80.3171 34.6928 79.9309 35.376 79.9309 36.1186C79.9309 36.5344 80.02 36.8909 80.1982 37.2176C80.3765 37.5443 80.7032 37.8413 81.1784 38.079C81.6537 38.3463 82.5448 38.673 83.822 38.9998L89.3765 40.3661C91.218 40.8413 92.4062 41.1681 92.8517 41.3463C94.0101 41.7324 94.9606 42.178 95.7329 42.7126C96.5052 43.2473 97.1289 43.7819 97.5745 44.4057C98.02 44.9998 98.3765 45.7126 98.6438 46.4849C98.8814 47.2572 99.0299 48.1186 99.0299 49.0394C99.0299 50.7027 98.7329 52.1879 98.1091 53.5542C97.4854 54.9206 96.5943 56.0196 95.4359 56.881C94.2775 57.7423 92.8517 58.3958 91.1289 58.8413C89.4062 59.2869 87.4161 59.4948 85.0992 59.4948C82.7824 59.4948 80.6735 59.2572 78.921 58.7522C77.1685 58.2473 75.7428 57.5344 74.6735 56.5542C73.5745 55.6037 72.7725 54.5344 72.2378 53.376C71.7032 52.2176 71.3171 50.7027 71.1091 48.8909H79.3072C79.3072 49.8413 79.4557 50.6136 79.7824 51.2077C80.2279 52.0097 80.9111 52.6037 81.8319 52.9899C82.7527 53.376 83.9111 53.5839 85.3071 53.5839C87.3567 53.5839 88.8715 53.2275 89.822 52.5443C90.5052 52.0097 90.8616 51.3265 90.8616 50.4948C90.8616 49.8413 90.5943 49.277 90.0893 48.8314C89.5844 48.3562 88.3072 47.881 86.2576 47.4057C81.7428 46.3661 78.8319 45.5938 77.5547 45.0592C75.7428 44.3166 74.3765 43.3067 73.4854 42.0592C72.5943 40.8116 72.1487 39.2671 72.1487 37.4255C72.1487 35.5839 72.624 33.8612 73.6042 32.2869C74.5844 30.7126 76.0398 29.4948 77.9408 28.6334C79.8715 27.772 82.2477 27.3562 85.0695 27.3562C86.7032 27.3562 88.2477 27.5047 89.7329 27.8314C91.218 28.1582 92.4359 28.6334 93.4458 29.2572C94.426 29.881 95.2576 30.6235 95.8814 31.4552C96.5052 32.2869 97.0101 33.1186 97.3071 33.98C97.6042 34.8413 97.8418 35.9998 98.02 37.4255H90.1487H90.0596Z" fill="#173D70"/>
<path d="M122.822 40.6336C122.703 38.495 122.287 36.9207 121.574 35.9108C120.564 34.4554 119.02 33.7425 116.941 33.7425C115.485 33.7425 114.297 34.0692 113.347 34.693C112.396 35.3168 111.654 36.2376 111.119 37.4257C110.762 38.2277 110.525 39.3267 110.436 40.6633H122.852L122.822 40.6336ZM110.228 45.8613C110.287 48.1187 110.941 49.9009 112.218 51.1781C113.465 52.4554 115.099 53.1088 117.089 53.1088C118.456 53.1088 119.614 52.7821 120.535 52.1583C121.456 51.5346 122.109 50.6435 122.495 49.5445H130.663C130.248 51.5346 129.505 53.2276 128.436 54.6534C127.366 56.0791 125.762 57.2375 123.594 58.1286C121.456 59.0197 119.168 59.4653 116.733 59.4653C113.911 59.4653 111.416 58.8712 109.277 57.7128C107.139 56.5544 105.446 54.7128 104.168 52.188C102.921 49.6633 102.297 46.693 102.297 43.2772C102.297 38.9702 103.366 35.3465 105.475 32.4356C107.911 29.0494 111.594 27.3267 116.584 27.3267C118.693 27.3267 120.624 27.594 122.317 28.1583C124.01 28.7227 125.495 29.5841 126.743 30.7425C127.99 31.9009 128.911 33.297 129.564 34.8712C130.218 36.4455 130.634 38.2276 130.842 40.188C130.96 41.495 131.02 43.3663 131.02 45.8316H110.258L110.228 45.8613Z" fill="#173D70"/>
<path d="M149.228 51.9505C151.188 51.9505 152.763 51.2377 154.04 49.7822C155.287 48.3565 155.911 46.1288 155.911 43.1288C155.911 40.1288 155.287 37.7822 154.01 36.2971C152.733 34.8119 151.129 34.0694 149.169 34.0694C147.208 34.0694 145.693 34.8119 144.476 36.2971C143.228 37.7822 142.604 40.0694 142.604 43.1585C142.604 46.2476 143.228 48.3565 144.446 49.8119C145.664 51.2377 147.268 51.9803 149.228 51.9803M155.911 28.2773H163.723V57.0298C163.723 59.8218 163.456 62.0199 162.891 63.6238C162.357 65.2278 161.406 66.5941 160.07 67.7228C158.733 68.8515 157.159 69.6832 155.347 70.2476C153.505 70.7822 151.367 71.0793 148.901 71.0793C144.416 71.0793 141.03 70.2773 138.743 68.703C136.456 67.1288 135.238 64.8713 135.06 61.9605H143.733C143.852 62.8515 144.268 63.5347 144.981 64.0397C145.931 64.6931 147.268 65.0496 148.99 65.0496C151.396 65.0496 153.119 64.4258 154.248 63.1783C155.347 61.9307 155.911 59.5842 155.911 56.1387C155.911 55.6931 155.911 54.9803 155.911 54.0298C154.901 55.6931 153.862 56.8218 152.733 57.4456C151.218 58.3367 149.377 58.7822 147.179 58.7822C144.773 58.7822 142.604 58.1882 140.614 57.0001C138.624 55.8119 137.109 54.0595 136.01 51.6832C134.941 49.3367 134.406 46.604 134.406 43.5149C134.406 40.7228 134.792 38.2872 135.594 36.1486C136.396 34.01 137.406 32.3169 138.654 31.0397C139.901 29.7624 141.208 28.8416 142.604 28.2773C144 27.7129 145.575 27.4159 147.327 27.4159C149.198 27.4159 150.832 27.8317 152.258 28.6634C153.654 29.4951 154.901 30.8317 155.941 32.6436V28.307L155.911 28.2773Z" fill="#173D70"/>
<path d="M186.772 43.7822C186.089 44.1386 185.436 44.4059 184.782 44.6436C184.129 44.8812 183.297 45.0891 182.198 45.297C180.149 45.6832 178.871 45.9802 178.366 46.1881C177.505 46.5446 176.881 47.0198 176.436 47.6436C176.02 48.2673 175.782 49.0099 175.782 49.901C175.782 51.1188 176.168 52.0693 176.881 52.8119C177.624 53.5545 178.604 53.9406 179.763 53.9406C181.515 53.9406 183.089 53.3762 184.545 52.2475C186 51.1188 186.713 49.3366 186.713 46.8713V43.8119L186.772 43.7822ZM176.673 37.901H168.832C169.01 34.8119 170.228 32.2574 172.485 30.297C174.743 28.3366 178.188 27.3564 182.822 27.3564C184.812 27.3564 186.654 27.5644 188.287 27.9802C189.921 28.396 191.139 28.9307 191.941 29.5842C192.743 30.2376 193.337 31.0693 193.782 32.1089C194.376 33.4456 194.673 35.1089 194.673 37.099V52.604C194.673 54.4158 194.792 55.604 195.119 56.1683C195.446 56.7624 195.891 57.1485 196.485 57.3267V58.5743H187.782C187.307 57.4158 187.04 56.2574 187.04 55.0396C185.436 56.7327 183.921 57.8911 182.525 58.5446C181.129 59.198 179.466 59.4951 177.535 59.4951C175.604 59.4951 173.822 59.1089 172.366 58.3663C170.911 57.6238 169.812 56.4951 169.069 55.0396C168.357 53.5842 167.97 52.0396 167.97 50.3762C167.97 47.8515 168.624 45.7426 169.961 44.0198C171.297 42.297 173.733 41.198 177.297 40.6634L183.98 39.6535C185.05 39.505 185.792 39.2376 186.178 38.8218C186.565 38.4357 186.772 37.8713 186.772 37.1881C186.772 36.0891 186.416 35.2277 185.673 34.6337C184.931 34.0099 183.713 33.7129 181.99 33.7129C180.267 33.7129 178.931 34.0099 178.188 34.6337C177.446 35.2574 176.941 36.3267 176.673 37.901Z" fill="#173D70"/>
<path d="M204.891 49.1881C204.98 50.4653 205.277 51.5346 205.782 52.4257C206.287 53.2871 207.119 53.9999 208.248 54.5643C209.376 55.1287 210.891 55.396 212.703 55.396C215.109 55.396 216.891 54.9207 218.05 53.9702C219.238 53.0197 219.832 51.891 219.832 50.6138C219.832 49.5445 219.386 48.6831 218.495 48.0296C217.604 47.3465 216.149 46.7821 214.159 46.3069L209.673 45.2079C206.347 44.4059 204.089 43.3663 202.871 42.0296C201.654 40.7227 201.06 39.0593 201.06 37.0395C201.06 35.4356 201.505 33.9207 202.366 32.4356C203.228 30.9801 204.535 29.8514 206.258 29.0494C207.98 28.2475 209.97 27.8613 212.258 27.8613C215.852 27.8613 218.614 28.7227 220.604 30.4752C222.594 32.198 223.604 34.4554 223.723 37.2178H218.941C218.763 35.5247 218.109 34.2178 217.01 33.3267C215.911 32.4356 214.248 31.99 212.02 31.99C209.941 31.99 208.396 32.4059 207.386 33.2673C206.376 34.0989 205.871 35.1386 205.871 36.3267C205.871 37.2772 206.168 38.0494 206.733 38.6435C207.594 39.4752 209.02 40.1287 210.98 40.6039L216.743 41.9999C219.772 42.7128 221.852 43.693 222.951 44.9405C224.05 46.1881 224.614 47.7326 224.614 49.6336C224.614 52.2178 223.634 54.5346 221.673 56.5544C219.713 58.5742 216.654 59.5841 212.495 59.5841C209.703 59.5841 207.357 59.1386 205.456 58.2178C203.555 57.297 202.159 55.9603 201.238 54.2376C200.555 52.9603 200.168 51.297 200.079 49.2772H204.862L204.891 49.1881Z" fill="#108DCD"/>
<path d="M251.168 43.6634C251.168 39.8911 250.337 37.0693 248.703 35.1683C247.04 33.2673 244.96 32.3169 242.465 32.3169C239.97 32.3169 237.861 33.2673 236.228 35.1683C234.594 37.0693 233.762 39.8911 233.762 43.6337C233.762 47.3763 234.594 50.2277 236.228 52.1287C237.861 54.0297 239.941 54.9802 242.465 54.9802C244.99 54.9802 247.04 54.0297 248.703 52.1287C250.366 50.2277 251.168 47.406 251.168 43.6337M256.277 43.6337C256.277 45.8317 256.01 47.9109 255.446 49.8713C255.03 51.3565 254.406 52.6634 253.663 53.8515C252.891 55.0099 251.941 56.0198 250.842 56.8812C249.743 57.7426 248.465 58.3961 247.01 58.8416C245.554 59.2871 244.04 59.5248 242.436 59.5248C239.673 59.5248 237.238 58.9307 235.158 57.7129C233.079 56.4951 231.446 54.6832 230.287 52.2772C229.129 49.8713 228.535 47.0198 228.535 43.6931C228.535 38.9406 229.723 35.1089 232.129 32.2277C234.535 29.3466 237.95 27.8911 242.376 27.8911C245.168 27.8911 247.634 28.5446 249.772 29.8218C251.911 31.099 253.545 32.9703 254.614 35.406C255.683 37.8416 256.218 40.604 256.218 43.7228" fill="#108DCD"/>
<path d="M267.208 17.6732H262.129V58.6039H267.208V17.6732Z" fill="#108DCD"/>
<path d="M293.168 43.4256C292.663 43.7821 292.099 44.0494 291.535 44.1979C290.673 44.4355 289.069 44.7326 286.663 45.0593C284.911 45.2969 283.723 45.5049 283.158 45.6534C282.03 45.9207 281.139 46.2771 280.485 46.7227C279.832 47.1682 279.327 47.6732 279 48.2375C278.673 48.8019 278.525 49.5148 278.525 50.3464C278.525 51.8613 279 53.0791 279.98 53.9999C280.96 54.9504 282.327 55.3959 284.109 55.3959C286.366 55.3959 288.445 54.7425 290.317 53.4058C292.188 52.0692 293.139 50.3464 293.139 48.1781V43.3959L293.168 43.4256ZM274.693 37.7227C274.812 36.0296 275.079 34.6336 275.554 33.5346C276 32.4355 276.683 31.4553 277.604 30.6237C278.525 29.792 279.742 29.1385 281.287 28.6336C282.832 28.1286 284.643 27.891 286.752 27.891C288.861 27.891 290.584 28.0989 292.099 28.5445C293.614 28.9603 294.802 29.5841 295.693 30.3563C296.584 31.1286 297.238 32.0197 297.653 33.0296C298.069 34.0395 298.277 35.1385 298.277 36.4157V53.0197C298.277 53.8811 298.426 54.4752 298.723 54.8019C299.02 55.1286 299.406 55.2771 299.941 55.2771C300.327 55.2771 300.891 55.2177 301.604 55.0692V58.6633C300.475 58.9306 299.525 59.0494 298.723 59.0494C297 59.0494 295.752 58.7227 294.95 58.0395C294.148 57.3563 293.703 56.2573 293.554 54.7425C292.04 56.3464 290.436 57.5643 288.772 58.3662C287.109 59.1682 285.178 59.5841 282.98 59.5841C280.069 59.5841 277.752 58.7821 276.059 57.1484C274.337 55.5148 273.505 53.4058 273.505 50.8514C273.505 49.3662 273.772 48.0296 274.337 46.8415C274.901 45.6534 275.673 44.6732 276.683 43.8712C277.277 43.3662 278.109 42.9207 279.148 42.4751C280.188 42.0593 281.317 41.7623 282.475 41.6435L290.554 40.6336C291.564 40.5148 292.307 40.1583 292.752 39.6534C293.198 39.1187 293.436 38.3167 293.436 37.2177C293.436 35.5544 292.901 34.3068 291.891 33.4157C290.851 32.5247 289.099 32.0791 286.663 32.0791C284.376 32.0791 282.683 32.5544 281.584 33.5049C280.485 34.4553 279.832 35.8811 279.653 37.8118H274.871L274.693 37.7227Z" fill="#108DCD"/>
<path d="M306.505 58.5742V28.7821H311.584V33.7128C312.445 31.7227 313.604 30.2673 315.03 29.2871C316.455 28.3366 317.911 27.8613 319.396 27.8613C319.841 27.8613 320.376 27.9207 321.03 28.0395V33.3267C320.168 33.2376 319.544 33.1782 319.188 33.1782C317.673 33.1782 316.307 33.5643 315 34.3663C313.723 35.1683 312.772 36.2079 312.148 37.5445C311.733 38.4059 311.554 39.7128 311.554 41.4653V58.5742H306.475H306.505Z" fill="#108DCD"/>
</g>
<defs>
<linearGradient id="paint0_linear_1_718" x1="-0.671287" y1="37.1687" x2="56.4178" y2="37.1687" gradientUnits="userSpaceOnUse">
<stop stop-color="#4892CE"/>
<stop offset="1" stop-color="#163D6E"/>
</linearGradient>
<linearGradient id="paint1_linear_1_718" x1="-0.671287" y1="37.1688" x2="56.4178" y2="37.1688" gradientUnits="userSpaceOnUse">
<stop stop-color="#188DCD"/>
<stop offset="1" stop-color="#163D6E"/>
</linearGradient>
<linearGradient id="paint2_linear_1_718" x1="-0.671287" y1="37.1687" x2="56.4178" y2="37.1687" gradientUnits="userSpaceOnUse">
<stop stop-color="#188DCD"/>
<stop offset="1" stop-color="#163D6E"/>
</linearGradient>
<linearGradient id="paint3_linear_1_718" x1="-0.671287" y1="37.1688" x2="56.4178" y2="37.1688" gradientUnits="userSpaceOnUse">
<stop stop-color="#4892CE"/>
<stop offset="1" stop-color="#163D6E"/>
</linearGradient>
<linearGradient id="paint4_linear_1_718" x1="-0.671531" y1="37.1688" x2="56.4176" y2="37.1688" gradientUnits="userSpaceOnUse">
<stop stop-color="#4892CE"/>
<stop offset="1" stop-color="#163D6E"/>
</linearGradient>
<linearGradient id="paint5_linear_1_718" x1="-0.671531" y1="37.1687" x2="56.4176" y2="37.1687" gradientUnits="userSpaceOnUse">
<stop stop-color="#188DCD"/>
<stop offset="1" stop-color="#163D6E"/>
</linearGradient>
<linearGradient id="paint6_linear_1_718" x1="-0.671287" y1="37.1687" x2="56.4178" y2="37.1687" gradientUnits="userSpaceOnUse">
<stop stop-color="#188DCD"/>
<stop offset="1" stop-color="#163D6E"/>
</linearGradient>
<linearGradient id="paint7_linear_1_718" x1="-0.671287" y1="37.1687" x2="56.4178" y2="37.1687" gradientUnits="userSpaceOnUse">
<stop stop-color="#4892CE"/>
<stop offset="1" stop-color="#163D6E"/>
</linearGradient>
<linearGradient id="paint8_linear_1_718" x1="-0.671531" y1="37.1688" x2="56.4176" y2="37.1688" gradientUnits="userSpaceOnUse">
<stop stop-color="#4892CE"/>
<stop offset="1" stop-color="#163D6E"/>
</linearGradient>
<linearGradient id="paint9_linear_1_718" x1="-0.671287" y1="37.1687" x2="56.4178" y2="37.1687" gradientUnits="userSpaceOnUse">
<stop stop-color="#4892CE"/>
<stop offset="1" stop-color="#163D6E"/>
</linearGradient>
<linearGradient id="paint10_linear_1_718" x1="-0.671287" y1="37.1687" x2="56.4178" y2="37.1687" gradientUnits="userSpaceOnUse">
<stop stop-color="#188DCD"/>
<stop offset="1" stop-color="#163D6E"/>
</linearGradient>
<linearGradient id="paint11_linear_1_718" x1="-0.671287" y1="37.1688" x2="56.4178" y2="37.1688" gradientUnits="userSpaceOnUse">
<stop stop-color="#4892CE"/>
<stop offset="1" stop-color="#163D6E"/>
</linearGradient>
<linearGradient id="paint12_linear_1_718" x1="-0.671287" y1="37.1687" x2="56.4178" y2="37.1687" gradientUnits="userSpaceOnUse">
<stop stop-color="#4892CE"/>
<stop offset="1" stop-color="#163D6E"/>
</linearGradient>
<linearGradient id="paint13_linear_1_718" x1="-0.671287" y1="37.1688" x2="56.4178" y2="37.1688" gradientUnits="userSpaceOnUse">
<stop stop-color="#4892CE"/>
<stop offset="1" stop-color="#163D6E"/>
</linearGradient>
<linearGradient id="paint14_linear_1_718" x1="-0.671287" y1="37.1687" x2="56.4178" y2="37.1687" gradientUnits="userSpaceOnUse">
<stop stop-color="#188DCD"/>
<stop offset="1" stop-color="#163D6E"/>
</linearGradient>
<linearGradient id="paint15_linear_1_718" x1="-0.671531" y1="37.1688" x2="56.4176" y2="37.1688" gradientUnits="userSpaceOnUse">
<stop stop-color="#188DCD"/>
<stop offset="1" stop-color="#163D6E"/>
</linearGradient>
<linearGradient id="paint16_linear_1_718" x1="-0.671531" y1="37.1688" x2="56.4176" y2="37.1688" gradientUnits="userSpaceOnUse">
<stop stop-color="#4892CE"/>
<stop offset="1" stop-color="#163D6E"/>
</linearGradient>
<linearGradient id="paint17_linear_1_718" x1="-0.671287" y1="37.1688" x2="56.4178" y2="37.1688" gradientUnits="userSpaceOnUse">
<stop stop-color="#4892CE"/>
<stop offset="1" stop-color="#163D6E"/>
</linearGradient>
<clipPath id="clip0_1_718">
<rect width="321" height="70.0396" fill="white" transform="translate(0 0.980225)"/>
</clipPath>
</defs>
</svg>
